{
  "accessors": [
    {
      "bufferView": 2,
      "componentType": 5126,
      "count": 2327,
      "max": [
        0.23043090105056763,
        0.043058328330516815,
        0.013134004548192024
      ],
      "min": [
        -0.1491115242242813,
        -0.043058328330516815,
        -0.01318282913416624
      ],
      "type": "VEC3"
    },
    {
      "bufferView": 2,
      "byteOffset": 27924,
      "componentType": 5126,
      "count": 2327,
      "max": [
        0.9999999403953552,
        0.9999998807907104,
        0.9999753832817078
      ],
      "min": [
        -1.0,
        -0.9999997019767761,
        -0.9999945163726807
      ],
      "type": "VEC3"
    },
    {
      "bufferView": 3,
      "componentType": 5126,
      "count": 2327,
      "max": [
        0.9999998211860657,
        1.0,
        1.0,
        1.0
      ],
      "min": [
        -0.9999998211860657,
        -1.0,
        -1.0,
        1.0
      ],
      "type": "VEC4"
    },
    {
      "bufferView": 1,
      "componentType": 5126,
      "count": 2327,
      "max": [
        0.98876953125,
        0.9870452880859375
      ],
      "min": [
        0.01386260986328125,
        0.00927734375
      ],
      "type": "VEC2"
    },
    {
      "bufferView": 1,
      "byteOffset": 18616,
      "componentType": 5126,
      "count": 2327,
      "max": [
        0.0,
        1.0
      ],
      "min": [
        0.0,
        1.0
      ],
      "type": "VEC2"
    },
    {
      "bufferView": 1,
      "byteOffset": 37232,
      "componentType": 5126,
      "count": 2327,
      "max": [
        0.98876953125,
        0.9870452880859375
      ],
      "min": [
        0.01386260986328125,
        0.00927734375
      ],
      "type": "VEC2"
    },
    {
      "bufferView": 0,
      "componentType": 5125,
      "count": 8892,
      "type": "SCALAR"
    }
  ],
  "asset": {
    "extras": {
      "author": "crumhirnd (https://sketchfab.com/crumhirnd)",
      "license": "CC-BY-4.0 (http://creativecommons.org/licenses/by/4.0/)",
      "source": "https://sketchfab.com/3d-models/jett-knife-653d3f30cdfb47f286ff4f207f634896",
      "title": "Jett Knife"
    },
    "generator": "Sketchfab-15.0.0",
    "version": "2.0"
  },
  "bufferViews": [
    {
      "buffer": 0,
      "byteLength": 35568,
      "name": "floatBufferViews",
      "target": 34963
    },
    {
      "buffer": 0,
      "byteLength": 55848,
      "byteOffset": 35568,
      "byteStride": 8,
      "name": "floatBufferViews",
      "target": 34962
    },
    {
      "buffer": 0,
      "byteLength": 55848,
      "byteOffset": 91416,
      "byteStride": 12,
      "name": "floatBufferViews",
      "target": 34962
    },
    {
      "buffer": 0,
      "byteLength": 37232,
      "byteOffset": 147264,
      "byteStride": 16,
      "name": "floatBufferViews",
      "target": 34962
    }
  ],
  "buffers": [
    {
      "byteLength": 184496,
      "uri": "scene.bin"
    }
  ],
  "images": [
    {
      "uri": "textures/AB_Wushu_S0_X_MI_baseColor.png"
    },
    {
      "uri": "textures/AB_Wushu_S0_X_MI_normal.png"
    }
  ],
  "materials": [
    {
      "name": "AB_Wushu_S0_X_MI",
      "normalTexture": {
        "index": 1
      },
      "pbrMetallicRoughness": {
        "baseColorTexture": {
          "index": 0
        },
        "metallicFactor": 0.0,
        "roughnessFactor": 0.5
      }
    }
  ],
  "meshes": [
    {
      "name": "AB_Wushu_S0_X_Staticmesh",
      "primitives": [
        {
          "attributes": {
            "NORMAL": 1,
            "POSITION": 0,
            "TANGENT": 2,
            "TEXCOORD_0": 3,
            "TEXCOORD_1": 4,
            "TEXCOORD_2": 5
          },
          "indices": 6,
          "material": 0,
          "mode": 4
        }
      ]
    }
  ],
  "nodes": [
    {
      "children": [
        1
      ],
      "matrix": [
        1.0,
        0.0,
        0.0,
        0.0,
        0.0,
        2.220446049250313e-16,
        -1.0,
        0.0,
        0.0,
        1.0,
        2.220446049250313e-16,
        0.0,
        0.0,
        0.0,
        0.0,
        1.0
      ],
      "name": "Sketchfab_model"
    },
    {
      "children": [
        2
      ],
      "matrix": [
        0.009999999776482582,
        0.0,
        0.0,
        0.0,
        0.0,
        2.2204459996194763e-18,
        0.009999999776482582,
        0.0,
        0.0,
        -0.009999999776482582,
        2.2204459996194763e-18,
        0.0,
        0.0,
        0.0,
        0.0,
        1.0
      ],
      "name": "USDRoot"
    },
    {
      "children": [
        3
      ],
      "name": "knife"
    },
    {
      "children": [
        4
      ],
      "matrix": [
        100.0,
        0.0,
        0.0,
        0.0,
        0.0,
        -1.3315805517777335e-05,
        -100.0,
        0.0,
        0.0,
        100.0,
        -1.3315805517777335e-05,
        0.0,
        0.0,
        0.0,
        0.0,
        1.0
      ],
      "name": "AB_Wushu_S0_X_Staticmesh"
    },
    {
      "mesh": 0,
      "name": "AB_Wushu_S0_X_Staticmesh"
    }
  ],
  "samplers": [
    {
      "magFilter": 9729,
      "minFilter": 9987,
      "wrapS": 10497,
      "wrapT": 10497
    }
  ],
  "scene": 0,
  "scenes": [
    {
      "name": "Sketchfab_Scene",
      "nodes": [
        0
      ]
    }
  ],
  "textures": [
    {
      "sampler": 0,
      "source": 0
    },
    {
      "sampler": 0,
      "source": 1
    }
  ]
}
